{
    "format": {
        "bit_rate": "26382361",
        "duration": "7.040367",
        "filename": "C:/Footages/FilmoraGoGoGo/H264/filmora\u7247\u5934.mov",
        "format_long_name": "QuickTime / MOV",
        "format_name": "mov,mp4,m4a,3gp,3g2,mj2",
        "nb_programs": 0,
        "nb_streams": 3,
        "probe_score": 100,
        "size": "23217688",
        "start_time": "0.000000",
        "tags": {
            "compatible_brands": "qt  ",
            "creation_time": "2016-09-28T00:40:21.000000Z",
            "major_brand": "qt  ",
            "minor_version": "537199360"
        }
    },
    "streams": [
        {
            "avg_frame_rate": "30000/1001",
            "bit_rate": "23654858",
            "bits_per_raw_sample": "10",
            "codec_long_name": "Apple ProRes (iCodec Pro)",
            "codec_name": "prores",
            "codec_tag": "0x68347061",
            "codec_tag_string": "ap4h",
            "codec_time_base": "1001/30000",
            "codec_type": "video",
            "coded_height": 1080,
            "coded_width": 1920,
            "color_primaries": "bt709",
            "color_space": "bt709",
            "color_transfer": "bt709",
            "display_aspect_ratio": "16:9",
            "disposition": {
                "attached_pic": 0,
                "clean_effects": 0,
                "comment": 0,
                "default": 1,
                "dub": 0,
                "forced": 0,
                "hearing_impaired": 0,
                "karaoke": 0,
                "lyrics": 0,
                "original": 0,
                "timed_thumbnails": 0,
                "visual_impaired": 0
            },
            "duration": "7.040367",
            "duration_ts": 211211,
            "field_order": "progressive",
            "has_b_frames": 0,
            "height": 1080,
            "index": 0,
            "level": -99,
            "nb_frames": "211",
            "pix_fmt": "yuva444p10le",
            "r_frame_rate": "30000/1001",
            "refs": 1,
            "sample_aspect_ratio": "1:1",
            "start_pts": 0,
            "start_time": "0.000000",
            "tags": {
                "creation_time": "2016-09-28T00:40:21.000000Z",
                "encoder": "Apple ProRes 4444",
                "handler_name": "Apple Alias Data Handler",
                "language": "eng",
                "timecode": "00:00:00;00"
            },
            "time_base": "1/30000",
            "width": 1920
        },
        {
            "avg_frame_rate": "0/0",
            "bit_rate": "1536000",
            "bits_per_sample": 16,
            "channel_layout": "stereo",
            "channels": 2,
            "codec_long_name": "PCM signed 16-bit little-endian",
            "codec_name": "pcm_s16le",
            "codec_tag": "0x74776f73",
            "codec_tag_string": "sowt",
            "codec_time_base": "1/48000",
            "codec_type": "audio",
            "disposition": {
                "attached_pic": 0,
                "clean_effects": 0,
                "comment": 0,
                "default": 1,
                "dub": 0,
                "forced": 0,
                "hearing_impaired": 0,
                "karaoke": 0,
                "lyrics": 0,
                "original": 0,
                "timed_thumbnails": 0,
                "visual_impaired": 0
            },
            "duration": "7.040333",
            "duration_ts": 337936,
            "index": 1,
            "nb_frames": "337937",
            "r_frame_rate": "0/0",
            "sample_fmt": "s16",
            "sample_rate": "48000",
            "start_pts": 0,
            "start_time": "0.000000",
            "tags": {
                "creation_time": "2016-09-28T00:40:21.000000Z",
                "handler_name": "Apple Alias Data Handler",
                "language": "eng",
                "timecode": "00:00:00;00"
            },
            "time_base": "1/48000"
        },
        {
            "avg_frame_rate": "30/1",
            "bit_rate": "4",
            "codec_tag": "0x64636d74",
            "codec_tag_string": "tmcd",
            "codec_type": "data",
            "disposition": {
                "attached_pic": 0,
                "clean_effects": 0,
                "comment": 0,
                "default": 1,
                "dub": 0,
                "forced": 0,
                "hearing_impaired": 0,
                "karaoke": 0,
                "lyrics": 0,
                "original": 0,
                "timed_thumbnails": 0,
                "visual_impaired": 0
            },
            "duration": "7.040367",
            "duration_ts": 211211,
            "index": 2,
            "nb_frames": "1",
            "r_frame_rate": "0/0",
            "start_pts": 0,
            "start_time": "0.000000",
            "tags": {
                "creation_time": "2016-09-28T00:40:21.000000Z",
                "handler_name": "Apple Alias Data Handler",
                "language": "eng",
                "timecode": "00:00:00;00"
            },
            "time_base": "1/30000"
        }
    ]
}